<svg preserveAspectRatio="none" width="100%" height="100%" overflow="visible" style="display: block;" viewBox="0 0 15 15" fill="none" xmlns="http://www.w3.org/2000/svg">
<g id="Container">
<path id="Icon" d="M5.25 7.875H6V6.375H6.75C6.9625 6.375 7.14063 6.30313 7.28438 6.15938C7.42813 6.01563 7.5 5.8375 7.5 5.625V4.875C7.5 4.6625 7.42813 4.48437 7.28438 4.34062C7.14063 4.19687 6.9625 4.125 6.75 4.125H5.25V7.875V7.875M6 5.625V4.875H6.75V5.625H6V5.625M8.25 7.875H9.75C9.9625 7.875 10.1406 7.80313 10.2844 7.65938C10.4281 7.51563 10.5 7.3375 10.5 7.125V4.875C10.5 4.6625 10.4281 4.48437 10.2844 4.34062C10.1406 4.19687 9.9625 4.125 9.75 4.125H8.25V7.875V7.875M9 7.125V4.875H9.75V7.125H9V7.125M11.25 7.875H12V6.375H12.75V5.625H12V4.875H12.75V4.125H11.25V7.875V7.875M4.5 12C4.0875 12 3.73437 11.8531 3.44062 11.5594C3.14687 11.2656 3 10.9125 3 10.5V1.5C3 1.0875 3.14687 0.734375 3.44062 0.440625C3.73437 0.146875 4.0875 0 4.5 0H13.5C13.9125 0 14.2656 0.146875 14.5594 0.440625C14.8531 0.734375 15 1.0875 15 1.5V10.5C15 10.9125 14.8531 11.2656 14.5594 11.5594C14.2656 11.8531 13.9125 12 13.5 12H4.5V12M4.5 10.5H13.5V10.5V10.5V1.5V1.5V1.5H4.5V1.5V1.5V10.5V10.5V10.5V10.5M1.5 15C1.0875 15 0.734375 14.8531 0.440625 14.5594C0.146875 14.2656 0 13.9125 0 13.5V3H1.5V13.5V13.5V13.5H12V15H1.5V15M4.5 1.5V1.5V1.5V1.5V10.5V10.5V10.5V10.5V10.5V10.5V1.5V1.5V1.5V1.5" fill="var(--fill-0, #EF4444)"/>
</g>
</svg>
